HIERARCHY
ROOT root
{
	OFFSET 0.000000 0.000000 0.000000
	CHANNELS 6 Xposition Yposition Zposition Zrotation Yrotation Xrotation
	JOINT lhip
	{
		OFFSET 0.058581 -0.082280 -0.017664
		CHANNELS 3 Zrotation Yrotation Xrotation
		JOINT lknee
		{
			OFFSET 0.043451 -0.386469 0.008037
			CHANNELS 3 Zrotation Yrotation Xrotation
			JOINT lankle
			{
				OFFSET -0.014790 -0.426874 -0.037428
				CHANNELS 3 Zrotation Yrotation Xrotation
				JOINT ltoe
				{
					OFFSET 0.041054 -0.060286 0.122042
					CHANNELS 3 Zrotation Yrotation Xrotation
					End Site
					{
						OFFSET 0.000000 0.000000 0.000000
					}
				}
			}
		}
	}
	JOINT rhip
	{
		OFFSET -0.060310 -0.090513 -0.013543
		CHANNELS 3 Zrotation Yrotation Xrotation
		JOINT rknee
		{
			OFFSET -0.043257 -0.383688 -0.004843
			CHANNELS 3 Zrotation Yrotation Xrotation
			JOINT rankle
			{
				OFFSET 0.019056 -0.420046 -0.034562
				CHANNELS 3 Zrotation Yrotation Xrotation
				JOINT rtoe
				{
					OFFSET -0.034840 -0.062106 0.130323
					CHANNELS 3 Zrotation Yrotation Xrotation
					End Site
					{
						OFFSET 0.000000 0.000000 0.000000
					}
				}
			}
		}
	}
	JOINT lowerback
	{
		OFFSET 0.004439 0.124404 -0.038385
		CHANNELS 3 Zrotation Yrotation Xrotation
		JOINT upperback
		{
			OFFSET 0.004488 0.137956 0.026820
			CHANNELS 3 Zrotation Yrotation Xrotation
			JOINT chest
			{
				OFFSET -0.002265 0.056032 0.002855
				CHANNELS 3 Zrotation Yrotation Xrotation
				JOINT lowerneck
				{
					OFFSET -0.013390 0.211636 -0.033468
					CHANNELS 3 Zrotation Yrotation Xrotation
					JOINT upperneck
					{
						OFFSET 0.010113 0.088937 0.050410
						CHANNELS 3 Zrotation Yrotation Xrotation
						End Site
						{
							OFFSET 0.000000 0.000000 0.000000
						}
					}
				}
				JOINT lclavicle
				{
					OFFSET 0.071702 0.114000 -0.018898
					CHANNELS 3 Zrotation Yrotation Xrotation
					JOINT lshoulder
					{
						OFFSET 0.122921 0.045205 -0.019046
						CHANNELS 3 Zrotation Yrotation Xrotation
						JOINT lelbow
						{
							OFFSET 0.255332 -0.015649 -0.022946
							CHANNELS 3 Zrotation Yrotation Xrotation
							JOINT lwrist
							{
								OFFSET 0.265709 0.012698 -0.007375
								CHANNELS 3 Zrotation Yrotation Xrotation
								End Site
								{
									OFFSET 0.000000 0.000000 0.000000
								}
							}
						}
					}
				}
				JOINT rclavicle
				{
					OFFSET -0.082954 0.112472 -0.023707
					CHANNELS 3 Zrotation Yrotation Xrotation
					JOINT rshoulder
					{
						OFFSET -0.113228 0.046853 -0.008472
						CHANNELS 3 Zrotation Yrotation Xrotation
						JOINT relbow
						{
							OFFSET -0.260127 -0.014369 -0.031269
							CHANNELS 3 Zrotation Yrotation Xrotation
							JOINT rwrist
							{
								OFFSET -0.269108 0.006794 -0.006027
								CHANNELS 3 Zrotation Yrotation Xrotation
								End Site
								{
									OFFSET 0.000000 0.000000 0.000000
								}
							}
						}
					}
				}
			}
		}
	}
}
MOTION
Frames: 13
Frame Time: 0.033333
-0.294151 1.990927 1.003064 8.521778 -2.409671 83.221776 -2.516488 1.791167 6.349375 0.566051 -6.406211 2.604354 4.037708 10.984403 -10.230960 0.000000 -0.000000 0.000000 -3.888110 -6.777301 6.815764 -2.554130 -4.540180 -0.165029 2.340184 -10.561742 -9.492303 0.000000 -0.000000 0.000000 -4.993730 5.992762 6.530550 -0.843946 -1.954924 15.799150 -0.372274 0.645755 -4.216571 2.127211 7.656599 3.029192 6.110792 4.424451 11.502600 -31.463673 -12.884576 5.749449 -44.229325 -11.981780 12.385230 -0.937820 -22.031614 5.014912 -2.803785 -2.003935 3.684563 32.771176 14.920135 13.185511 50.226266 10.096100 12.859710 -8.150352 23.081575 -10.359476 3.648290 4.938128 -7.845647 
-0.294074 1.991016 1.002874 8.444781 -2.357489 83.272360 -2.439974 1.795684 6.328751 0.523779 -6.406003 2.544276 3.934210 11.002679 -10.244511 0.000000 -0.000000 0.000000 -3.781760 -6.667415 6.746587 -2.555008 -4.535383 -0.277442 2.551304 -10.826856 -9.472119 0.000000 -0.000000 0.000000 -4.870892 5.920305 6.478216 -0.904971 -1.905473 15.562869 -0.375574 0.619562 -3.941442 2.211218 7.591173 3.102747 6.003060 4.421108 11.303265 -31.359479 -12.537346 5.685680 -44.500373 -11.659510 12.536590 -0.777271 -21.889213 5.282404 -2.952662 -1.665830 3.573681 32.610183 14.694419 13.010105 50.414384 10.080017 13.010848 -8.002546 23.135488 -9.874364 4.152619 4.747235 -7.942201 
-0.293915 1.991172 1.002736 8.425548 -2.389063 83.360388 -2.494355 1.794559 6.251924 0.530262 -6.412097 2.495320 3.942180 11.048252 -10.260001 0.000000 -0.000000 0.000000 -3.791386 -6.541520 6.644869 -2.491047 -4.459651 -0.419666 2.632326 -11.174261 -9.425217 0.000000 -0.000000 0.000000 -4.877372 5.895423 6.385192 -0.908388 -1.868377 15.518330 -0.394348 0.654699 -3.812080 2.295282 7.482128 2.981466 5.994385 4.450558 11.291925 -31.424387 -12.222936 5.662872 -44.542659 -11.417669 12.661288 -0.792055 -21.485050 5.382846 -2.987766 -1.690205 3.599017 32.607846 14.421278 12.821906 50.443377 10.006406 13.066048 -7.930859 23.108596 -9.789270 4.151315 4.679320 -7.922937 
-0.293657 1.991308 1.002504 8.406091 -2.392313 83.453082 -2.529949 1.786420 6.178836 0.551785 -6.417208 2.410076 3.901499 11.104565 -10.211667 0.000000 -0.000000 0.000000 -3.748682 -6.473112 6.509636 -2.497562 -4.416461 -0.516156 2.650548 -11.406866 -9.418457 0.000000 -0.000000 0.000000 -4.822195 5.851804 6.329380 -0.918358 -1.835235 15.395495 -0.421945 0.698539 -3.653412 2.387023 7.295236 2.846362 6.010890 4.405943 11.196356 -31.462994 -11.771092 5.683645 -44.757635 -10.946898 12.828845 -0.676986 -21.023868 5.739088 -3.051776 -1.759158 3.888682 32.551139 14.131932 12.628814 50.564147 9.865667 13.092011 -7.915795 23.188459 -9.615001 3.962986 4.667027 -7.917069 
-0.293589 1.991360 1.002477 8.403488 -2.383909 83.481147 -2.528984 1.786207 6.155343 0.556518 -6.420326 2.389653 3.887520 11.115236 -10.208854 0.000000 -0.000000 0.000000 -3.730816 -6.456033 6.465273 -2.506066 -4.396527 -0.512212 2.663111 -11.458125 -9.455970 0.000000 -0.000000 0.000000 -4.804438 5.840111 6.298698 -0.903917 -1.835205 15.385564 -0.422807 0.718764 -3.612994 2.408381 7.256676 2.825278 5.984420 4.370860 11.110234 -31.408552 -11.649425 5.678562 -44.939154 -10.714405 12.950225 -0.578624 -20.852417 5.837574 -3.092695 -1.578161 3.990569 32.538207 14.062395 12.579442 50.592945 9.815078 13.091385 -7.942044 23.275515 -9.605275 3.855141 4.659427 -7.903678 
-0.293488 1.991483 1.002448 8.390255 -2.361410 83.507632 -2.518520 1.787077 6.147356 0.569447 -6.418290 2.333837 3.864041 11.137843 -10.190214 0.000000 -0.000000 0.000000 -3.695895 -6.425786 6.412234 -2.523196 -4.361602 -0.497473 2.680922 -11.498106 -9.556785 0.000000 -0.000000 0.000000 -4.750388 5.815687 6.274106 -0.884992 -1.823173 15.363099 -0.426872 0.742667 -3.539465 2.442217 7.205876 2.784879 5.925387 4.314437 10.949195 -31.328103 -11.400611 5.695866 -45.254935 -10.239627 13.120798 -0.406896 -20.640766 6.030386 -3.258422 -1.310924 4.077371 32.507925 13.966133 12.504382 50.659699 9.745736 13.109820 -7.997985 23.507775 -9.551481 3.761945 4.705136 -7.927109 
-0.293482 1.991652 1.002424 8.364201 -2.345857 83.505260 -2.501158 1.798887 6.162665 0.568318 -6.417200 2.294037 3.854161 11.164093 -10.182860 0.000000 -0.000000 0.000000 -3.672481 -6.399675 6.392997 -2.529883 -4.324357 -0.492530 2.676260 -11.515900 -9.629093 0.000000 -0.000000 0.000000 -4.698355 5.796830 6.303856 -0.893974 -1.785425 15.316622 -0.439032 0.759279 -3.474461 2.500350 7.123024 2.705273 5.906867 4.297482 10.916030 -31.412354 -11.134188 5.762130 -45.347186 -9.874717 13.119642 -0.297437 -20.420008 6.092129 -3.198652 -1.228903 4.027167 32.521729 13.886162 12.438309 50.708297 9.736344 13.159355 -7.976644 23.668108 -9.469503 3.704386 4.752509 -8.012649 
-0.293549 1.991831 1.002393 8.334856 -2.342299 83.494549 -2.484789 1.832652 6.179461 0.557943 -6.421352 2.271398 3.863844 11.190380 -10.190886 0.000000 -0.000000 0.000000 -3.662631 -6.392939 6.386259 -2.532078 -4.294097 -0.490690 2.639655 -11.511755 -9.642272 0.000000 -0.000000 0.000000 -4.659956 5.790584 6.355239 -0.927057 -1.733241 15.278117 -0.462046 0.778659 -3.452464 2.583298 6.984091 2.594114 5.958554 4.289288 11.024110 -31.688119 -10.887522 5.889291 -45.187966 -9.648712 12.948187 -0.224321 -20.118267 5.940290 -2.775020 -1.317204 3.949825 32.617317 13.841864 12.415369 50.709651 9.768788 13.206187 -7.928506 23.731596 -9.454240 3.542009 4.814629 -8.099655 
-0.293625 1.991949 1.002348 8.316177 -2.335461 83.505707 -2.474167 1.857666 6.164222 0.564346 -6.418888 2.264699 3.875341 11.209738 -10.194344 0.000000 -0.000000 0.000000 -3.642844 -6.396561 6.367224 -2.540958 -4.290118 -0.505982 2.601155 -11.498729 -9.626639 0.000000 -0.000000 0.000000 -4.628676 5.796111 6.368511 -0.954790 -1.688471 15.239740 -0.472377 0.808998 -3.433428 2.639718 6.862114 2.530761 6.028908 4.256343 11.112058 -31.906585 -10.682249 6.011707 -45.060122 -9.469266 12.721651 -0.140376 -19.752105 5.602323 -2.298713 -1.444846 3.828973 32.703184 13.870793 12.441046 50.724859 9.808981 13.232072 -7.949288 23.745062 -9.527780 3.327390 4.924568 -8.123352 
-0.293722 1.992038 1.002297 8.311879 -2.325417 83.529565 -2.466640 1.852342 6.126812 0.580227 -6.410043 2.267826 3.856793 11.213924 -10.192377 0.000000 -0.000000 0.000000 -3.612860 -6.392505 6.340379 -2.552392 -4.300768 -0.533524 2.589833 -11.504313 -9.616649 0.000000 -0.000000 0.000000 -4.612803 5.808656 6.332528 -0.966259 -1.646114 15.197988 -0.459903 0.846453 -3.366436 2.682525 6.821332 2.514456 6.056761 4.178376 11.094791 -31.923176 -10.547565 6.076335 -45.100565 -9.282900 12.542157 -0.009745 -19.451157 5.200260 -2.064334 -1.492269 3.621679 32.770638 13.985443 12.519516 50.730707 9.856493 13.270117 -8.020857 23.772947 -9.587845 3.094090 4.852912 -8.008384 
-0.293837 1.992161 1.002197 8.335688 -2.302595 83.546390 -2.435857 1.835210 6.085673 0.586172 -6.407300 2.271721 3.781518 11.201250 -10.169943 0.000000 -0.000000 0.000000 -3.575058 -6.402239 6.323355 -2.549681 -4.295211 -0.572916 2.598349 -11.550039 -9.617045 0.000000 -0.000000 0.000000 -4.576320 5.812416 6.320326 -0.977519 -1.598896 15.123862 -0.444233 0.884221 -3.243127 2.733570 6.851818 2.484814 6.042938 4.105148 11.018189 -31.875142 -10.464715 6.093622 -45.141935 -9.167073 12.353814 0.136929 -19.211532 4.879859 -2.033748 -1.460695 3.417916 32.833196 14.043768 12.582650 50.681850 10.030955 13.297645 -7.946904 23.805107 -9.363290 2.819998 4.269215 -7.600786 
-0.293970 1.992370 1.002076 8.411258 -2.259656 83.569394 -2.375059 1.814613 6.019096 0.581493 -6.423178 2.278695 3.700008 11.164568 -10.132180 0.000000 -0.000000 0.000000 -3.517301 -6.439816 6.291270 -2.544478 -4.300338 -0.600833 2.601577 -11.595618 -9.619718 0.000000 -0.000000 0.000000 -4.509652 5.797199 6.353073 -0.991014 -1.571364 14.994257 -0.431077 0.920280 -3.118204 2.775586 6.895702 2.449379 6.016243 4.075737 10.923018 -31.799831 -10.391715 6.072191 -45.188578 -9.120694 12.204820 0.251046 -19.054093 4.689209 -1.954215 -1.318317 3.243430 32.825308 14.041226 12.578158 50.669723 10.225409 13.320972 -7.835121 23.794005 -9.055931 2.648195 3.686711 -7.223704 
-0.294156 1.992616 1.002068 8.531100 -2.241459 83.590961 -2.334939 1.795244 5.956422 0.564818 -6.481687 2.288136 3.670805 11.134736 -10.127012 0.000000 -0.000000 0.000000 -3.485391 -6.473066 6.264664 -2.542777 -4.336318 -0.603782 2.592411 -11.632089 -9.618755 0.000000 -0.000000 0.000000 -4.489561 5.782801 6.393434 -0.996649 -1.565823 14.916897 -0.426450 0.960177 -3.101831 2.796821 6.892213 2.406576 6.029318 4.074114 10.904127 -31.764598 -10.333130 6.024838 -45.173887 -9.099484 12.168310 0.323010 -18.982951 4.610343 -1.773815 -1.272686 3.222587 32.849388 14.025203 12.545281 50.626870 10.303815 13.321511 -7.755606 23.720899 -8.953306 2.586748 3.538230 -7.096403 
